# xmcd
#
# Track frame offsets:
#	150
#	15315
#	28566
#	52317
#	69626
#	95397
#	108627
#	140951
#
# Disc length: 2080 seconds
#
# Revision: 0
# Processed by: cddbd v1.5.1PL2 Copyright (c) Steve Scherf et al.
# Submitted via: dBpowerAMP V4.0
#
DISCID=71081e08
DTITLE=Tom Walbank And The Ambassadors - Mudhook Vol.2
DYEAR=2005
DGENRE=Blues
TTITLE0=You Got Trouble
TTITLE1=Howlin' Tomcat
TTITLE2=Nighthawk Blues
TTITLE3=Raincloud Woman
TTITLE4=2 Steps From The Gutter
TTITLE5=Tamp It Down Solid
TTITLE6=Goin' Back To The Country
TTITLE7=X80
EXTD=Rock N Roll Purgatory\nRRP 016\nwalbanktom@hotmail.com\n
EXTT0=
EXTT1=
EXTT2=
EXTT3=
EXTT4=
EXTT5=
EXTT6=
EXTT7=
PLAYORDER=
